<svg width="19" height="12" viewBox="0 0 19 12" fill="none" xmlns="http://www.w3.org/2000/svg">
<path fill-rule="evenodd" clip-rule="evenodd" d="M6.78103 0.968875C6.85087 1.03854 6.90629 1.12131 6.9441 1.21242C6.98191 1.30354 7.00137 1.40122 7.00137 1.49988C7.00137 1.59853 6.98191 1.69621 6.9441 1.78733C6.90629 1.87844 6.85087 1.96121 6.78103 2.03088L2.81053 5.99987L6.78103 9.96887C6.85076 10.0386 6.90608 10.1214 6.94381 10.2125C6.98155 10.3036 7.00098 10.4013 7.00098 10.4999C7.00098 10.5985 6.98155 10.6961 6.94381 10.7872C6.90608 10.8784 6.85076 10.9611 6.78103 11.0309C6.7113 11.1006 6.62851 11.1559 6.5374 11.1937C6.44629 11.2314 6.34864 11.2508 6.25003 11.2508C6.15141 11.2508 6.05376 11.2314 5.96265 11.1937C5.87154 11.1559 5.78876 11.1006 5.71903 11.0309L1.21903 6.53087C1.14918 6.46121 1.09377 6.37844 1.05596 6.28732C1.01815 6.19621 0.998688 6.09853 0.998688 5.99987C0.998688 5.90122 1.01815 5.80354 1.05596 5.71242C1.09377 5.62131 1.14918 5.53854 1.21903 5.46887L5.71903 0.968875C5.7887 0.899031 5.87146 0.843616 5.96258 0.805806C6.0537 0.767997 6.15138 0.748535 6.25003 0.748535C6.34868 0.748535 6.44636 0.767997 6.53748 0.805806C6.6286 0.843616 6.71136 0.899031 6.78103 0.968875Z" fill="#6654C0"/>
<path fill-rule="evenodd" clip-rule="evenodd" d="M1.75 6C1.75 5.80109 1.82902 5.61032 1.96967 5.46967C2.11032 5.32902 2.30109 5.25 2.5 5.25H18.25C18.4489 5.25 18.6397 5.32902 18.7803 5.46967C18.921 5.61032 19 5.80109 19 6C19 6.19891 18.921 6.38968 18.7803 6.53033C18.6397 6.67098 18.4489 6.75 18.25 6.75H2.5C2.30109 6.75 2.11032 6.67098 1.96967 6.53033C1.82902 6.38968 1.75 6.19891 1.75 6Z" fill="#6654C0"/>
</svg>
