<svg width="20" height="20" viewBox="0 0 20 20" fill="none" xmlns="http://www.w3.org/2000/svg">
<path fill-rule="evenodd" clip-rule="evenodd" d="M13.0533 13.0525C13.1694 12.9363 13.3073 12.8441 13.459 12.7812C13.6108 12.7183 13.7735 12.6859 13.9377 12.6859C14.102 12.6859 14.2646 12.7183 14.4164 12.7812C14.5681 12.8441 14.706 12.9363 14.8221 13.0525L19.6346 17.865C19.8691 18.0994 20.001 18.4174 20.0011 18.749C20.0012 19.0805 19.8696 19.3986 19.6352 19.6331C19.4008 19.8677 19.0829 19.9995 18.7513 19.9997C18.4197 19.9998 18.1016 19.8682 17.8671 19.6338L13.0546 14.8213C12.9384 14.7052 12.8462 14.5673 12.7833 14.4156C12.7204 14.2638 12.688 14.1012 12.688 13.9369C12.688 13.7726 12.7204 13.61 12.7833 13.4582C12.8462 13.3065 12.9384 13.1686 13.0546 13.0525H13.0533Z" fill="white"/>
<path fill-rule="evenodd" clip-rule="evenodd" d="M8.125 15C9.02784 15 9.92184 14.8222 10.7559 14.4767C11.5901 14.1312 12.348 13.6248 12.9864 12.9864C13.6248 12.348 14.1312 11.5901 14.4767 10.7559C14.8222 9.92184 15 9.02784 15 8.125C15 7.22216 14.8222 6.32817 14.4767 5.49405C14.1312 4.65994 13.6248 3.90204 12.9864 3.26364C12.348 2.62524 11.5901 2.11883 10.7559 1.77333C9.92184 1.42783 9.02784 1.25 8.125 1.25C6.30164 1.25 4.55295 1.97433 3.26364 3.26364C1.97433 4.55295 1.25 6.30164 1.25 8.125C1.25 9.94836 1.97433 11.697 3.26364 12.9864C4.55295 14.2757 6.30164 15 8.125 15ZM16.25 8.125C16.25 10.2799 15.394 12.3465 13.8702 13.8702C12.3465 15.394 10.2799 16.25 8.125 16.25C5.97012 16.25 3.90349 15.394 2.37976 13.8702C0.856024 12.3465 0 10.2799 0 8.125C0 5.97012 0.856024 3.90349 2.37976 2.37976C3.90349 0.856024 5.97012 0 8.125 0C10.2799 0 12.3465 0.856024 13.8702 2.37976C15.394 3.90349 16.25 5.97012 16.25 8.125Z" fill="white"/>
</svg>
